<svg width="544" height="588" viewBox="0 0 544 588" fill="none" xmlns="http://www.w3.org/2000/svg">
<path d="M294.689 363.692C294.689 374.441 287.224 379.816 272.294 379.816C255.573 379.816 247.212 374.441 247.212 363.692C247.212 314.125 230.79 273.815 197.944 242.765C168.682 216.489 140.316 203.35 112.848 203.35C72.2398 203.35 46.8589 219.474 36.7104 251.723L33.1273 275.909V277.7C33.1273 301.587 50.7445 334.732 85.9784 377.131C95.5337 387.881 103.596 396.241 110.165 402.213C119.72 409.976 135.545 413.858 157.641 413.858C180.931 413.858 218.554 409.379 270.513 400.422C323.065 409.379 360.986 413.858 384.279 413.858C406.972 413.858 422.798 409.977 431.756 402.213C456.838 380.117 477.739 353.243 494.46 321.593C504.016 303.677 508.793 289.046 508.793 277.699C508.793 240.077 491.773 216.488 457.733 206.932C448.775 204.543 439.22 203.349 429.068 203.349C401.598 203.349 373.53 216.786 344.867 243.659C311.425 273.518 294.703 313.531 294.703 363.691M489.09 277.693C489.09 301.58 472.668 329.649 439.822 361.894L416.532 381.601L407.574 386.976C396.227 388.767 384.284 389.663 371.743 389.663C334.717 389.663 316.204 382.198 316.204 367.268C317.399 321.285 331.134 285.455 357.41 259.775C380.103 237.081 403.394 225.735 427.283 225.735C457.739 225.735 477.148 236.783 485.509 258.879L489.09 277.693ZM403.996 505.216C403.996 489.689 360.103 481.926 272.314 481.926C248.426 481.926 227.226 482.821 208.713 484.613L187.214 486.405C154.966 490.585 138.842 496.557 138.842 504.32C138.842 513.278 146.904 517.757 163.028 517.757L271.417 508.799L378.911 517.757C395.632 517.757 403.996 513.577 403.996 505.216ZM454.157 526.715C452.963 567.323 392.05 587.628 271.42 587.628C151.985 587.628 91.3684 567.323 89.5783 526.715C88.9811 488.495 83.3078 454.456 72.5584 424.598C65.9894 408.474 53.4486 387.871 34.9355 362.79C11.6452 331.139 0 303.071 0 278.589C0 240.369 16.4225 210.808 49.2681 189.906C67.7812 177.962 88.3841 171.99 111.077 171.99C142.131 171.99 171.692 183.337 199.76 206.03C199.76 178.559 202.448 159.748 207.822 149.596C212.003 138.249 225.738 124.514 249.028 108.39V87.7866L212.301 65.392V33.1439H245.445L256.195 0H286.651L298.296 33.1439H330.545V65.392L294.713 87.7866V108.39C317.406 125.111 331.44 139.444 336.815 151.387L343.086 177.365C343.683 184.531 344.28 194.086 344.877 206.03C372.945 183.337 401.909 171.99 431.77 171.99C471.781 171.99 502.836 187.218 524.929 217.675C537.47 235.591 543.74 255.895 543.74 278.588C543.74 303.073 532.095 331.439 508.805 363.684L488.202 392.349C466.106 425.791 454.754 470.581 454.157 526.715ZM53.7449 277.687C53.7449 252.606 66.2859 236.482 91.3678 229.315C98.534 226.926 105.999 225.732 113.762 225.732C138.844 225.732 162.732 237.079 185.425 259.772C211.104 286.048 224.541 321.879 225.735 367.266C226.332 380.404 212.597 387.869 184.529 389.66H171.092C159.149 389.66 146.906 388.764 134.365 386.973C114.658 377.418 94.9509 358.606 75.2437 330.539C60.9112 309.637 53.7449 292.02 53.7449 277.687Z" fill="black"/>
</svg>
